<?xml version="1.0" standalone="no"?>
<!DOCTYPE svg PUBLIC "-//W3C//DTD SVG 20010904//EN"
 "http://www.w3.org/TR/2001/REC-SVG-20010904/DTD/svg10.dtd">
<svg version="1.0" xmlns="http://www.w3.org/2000/svg"
 width="64.000000pt" height="64.000000pt" viewBox="0 0 64.000000 64.000000"
 preserveAspectRatio="xMidYMid meet">

<g transform="translate(0.000000,64.000000) scale(0.100000,-0.100000)"
fill="#000000" stroke="none">
<path d="M230 385 c0 -82 -3 -98 -20 -115 -11 -11 -29 -20 -40 -20 -11 0 -29
9 -40 20 -17 17 -20 33 -20 110 l0 90 -30 0 -30 0 0 -99 c0 -86 3 -102 23
-132 62 -92 202 -57 216 54 l6 42 23 -38 c24 -41 25 -31 -13 -194 -5 -21 -2
-23 30 -23 24 0 35 5 35 15 0 7 5 37 11 64 10 48 12 50 35 40 65 -24 142 -1
169 51 26 51 20 105 -18 146 -60 65 -156 54 -195 -23 l-19 -36 -25 54 c-14 30
-28 62 -32 72 -3 11 -16 17 -36 17 l-30 0 0 -95z m273 -16 c29 -16 37 -28 37
-61 0 -17 -9 -33 -22 -42 -27 -19 -48 -20 -83 -4 -23 10 -26 16 -21 42 3 17
17 41 32 54 29 26 29 26 57 11z"/>
</g>
</svg>
